<mxfile host="app.diagrams.net" agent="Mozilla/5.0 (Windows NT 10.0; Win64; x64) AppleWebKit/537.36 (KHTML, like Gecko) Chrome/140.0.0.0 Safari/537.36 Edg/140.0.0.0" version="28.2.3">
  <diagram name="第 1 页" id="R4QVgtmOIgI5bVF34_-7">
    <mxGraphModel dx="1418" dy="794" grid="0" gridSize="10" guides="1" tooltips="1" connect="1" arrows="1" fold="1" page="1" pageScale="1" pageWidth="827" pageHeight="1169" math="0" shadow="0">
      <root>
        <mxCell id="0" />
        <mxCell id="1" parent="0" />
        <mxCell id="LS16o1geLcCYeuPVep7X-2" value="" style="shape=table;startSize=0;container=1;collapsible=0;childLayout=tableLayout;fontSize=18;fillColor=#fff2cc;strokeColor=#d6b656;fontStyle=1" vertex="1" parent="1">
          <mxGeometry x="44" y="250" width="120" height="80" as="geometry" />
        </mxCell>
        <mxCell id="LS16o1geLcCYeuPVep7X-3" value="" style="shape=tableRow;horizontal=0;startSize=0;swimlaneHead=0;swimlaneBody=0;strokeColor=inherit;top=0;left=0;bottom=0;right=0;collapsible=0;dropTarget=0;fillColor=none;points=[[0,0.5],[1,0.5]];portConstraint=eastwest;fontSize=18;fontStyle=1" vertex="1" parent="LS16o1geLcCYeuPVep7X-2">
          <mxGeometry width="120" height="40" as="geometry" />
        </mxCell>
        <mxCell id="LS16o1geLcCYeuPVep7X-4" value="1" style="shape=partialRectangle;html=1;whiteSpace=wrap;connectable=0;strokeColor=inherit;overflow=hidden;fillColor=none;top=0;left=0;bottom=0;right=0;pointerEvents=1;fontSize=18;fontStyle=1" vertex="1" parent="LS16o1geLcCYeuPVep7X-3">
          <mxGeometry width="60" height="40" as="geometry">
            <mxRectangle width="60" height="40" as="alternateBounds" />
          </mxGeometry>
        </mxCell>
        <mxCell id="LS16o1geLcCYeuPVep7X-5" value="2" style="shape=partialRectangle;html=1;whiteSpace=wrap;connectable=0;strokeColor=inherit;overflow=hidden;fillColor=none;top=0;left=0;bottom=0;right=0;pointerEvents=1;fontSize=18;fontStyle=1" vertex="1" parent="LS16o1geLcCYeuPVep7X-3">
          <mxGeometry x="60" width="60" height="40" as="geometry">
            <mxRectangle width="60" height="40" as="alternateBounds" />
          </mxGeometry>
        </mxCell>
        <mxCell id="LS16o1geLcCYeuPVep7X-7" value="" style="shape=tableRow;horizontal=0;startSize=0;swimlaneHead=0;swimlaneBody=0;strokeColor=inherit;top=0;left=0;bottom=0;right=0;collapsible=0;dropTarget=0;fillColor=none;points=[[0,0.5],[1,0.5]];portConstraint=eastwest;fontSize=18;fontStyle=1" vertex="1" parent="LS16o1geLcCYeuPVep7X-2">
          <mxGeometry y="40" width="120" height="40" as="geometry" />
        </mxCell>
        <mxCell id="LS16o1geLcCYeuPVep7X-8" value="5" style="shape=partialRectangle;html=1;whiteSpace=wrap;connectable=0;strokeColor=inherit;overflow=hidden;fillColor=none;top=0;left=0;bottom=0;right=0;pointerEvents=1;fontSize=18;fontStyle=1" vertex="1" parent="LS16o1geLcCYeuPVep7X-7">
          <mxGeometry width="60" height="40" as="geometry">
            <mxRectangle width="60" height="40" as="alternateBounds" />
          </mxGeometry>
        </mxCell>
        <mxCell id="LS16o1geLcCYeuPVep7X-9" value="6" style="shape=partialRectangle;html=1;whiteSpace=wrap;connectable=0;strokeColor=inherit;overflow=hidden;fillColor=none;top=0;left=0;bottom=0;right=0;pointerEvents=1;fontSize=18;fontStyle=1" vertex="1" parent="LS16o1geLcCYeuPVep7X-7">
          <mxGeometry x="60" width="60" height="40" as="geometry">
            <mxRectangle width="60" height="40" as="alternateBounds" />
          </mxGeometry>
        </mxCell>
        <mxCell id="LS16o1geLcCYeuPVep7X-18" value="S0" style="text;html=1;align=center;verticalAlign=middle;resizable=0;points=[];autosize=1;strokeColor=none;fillColor=none;fontStyle=1;fontSize=18;" vertex="1" parent="1">
          <mxGeometry x="84" y="338" width="40" height="34" as="geometry" />
        </mxCell>
        <mxCell id="LS16o1geLcCYeuPVep7X-19" value="" style="shape=table;startSize=0;container=1;collapsible=0;childLayout=tableLayout;fontSize=18;fillColor=#f8cecc;strokeColor=#b85450;fontStyle=1" vertex="1" parent="1">
          <mxGeometry x="204" y="250" width="120" height="80" as="geometry" />
        </mxCell>
        <mxCell id="LS16o1geLcCYeuPVep7X-20" value="" style="shape=tableRow;horizontal=0;startSize=0;swimlaneHead=0;swimlaneBody=0;strokeColor=inherit;top=0;left=0;bottom=0;right=0;collapsible=0;dropTarget=0;fillColor=none;points=[[0,0.5],[1,0.5]];portConstraint=eastwest;fontSize=18;fontStyle=1" vertex="1" parent="LS16o1geLcCYeuPVep7X-19">
          <mxGeometry width="120" height="40" as="geometry" />
        </mxCell>
        <mxCell id="LS16o1geLcCYeuPVep7X-21" value="3" style="shape=partialRectangle;html=1;whiteSpace=wrap;connectable=0;strokeColor=inherit;overflow=hidden;fillColor=none;top=0;left=0;bottom=0;right=0;pointerEvents=1;fontSize=18;fontStyle=1" vertex="1" parent="LS16o1geLcCYeuPVep7X-20">
          <mxGeometry width="60" height="40" as="geometry">
            <mxRectangle width="60" height="40" as="alternateBounds" />
          </mxGeometry>
        </mxCell>
        <mxCell id="LS16o1geLcCYeuPVep7X-22" value="4" style="shape=partialRectangle;html=1;whiteSpace=wrap;connectable=0;strokeColor=inherit;overflow=hidden;fillColor=none;top=0;left=0;bottom=0;right=0;pointerEvents=1;fontSize=18;fontStyle=1" vertex="1" parent="LS16o1geLcCYeuPVep7X-20">
          <mxGeometry x="60" width="60" height="40" as="geometry">
            <mxRectangle width="60" height="40" as="alternateBounds" />
          </mxGeometry>
        </mxCell>
        <mxCell id="LS16o1geLcCYeuPVep7X-23" value="" style="shape=tableRow;horizontal=0;startSize=0;swimlaneHead=0;swimlaneBody=0;strokeColor=inherit;top=0;left=0;bottom=0;right=0;collapsible=0;dropTarget=0;fillColor=none;points=[[0,0.5],[1,0.5]];portConstraint=eastwest;fontSize=18;fontStyle=1" vertex="1" parent="LS16o1geLcCYeuPVep7X-19">
          <mxGeometry y="40" width="120" height="40" as="geometry" />
        </mxCell>
        <mxCell id="LS16o1geLcCYeuPVep7X-24" value="7" style="shape=partialRectangle;html=1;whiteSpace=wrap;connectable=0;strokeColor=inherit;overflow=hidden;fillColor=none;top=0;left=0;bottom=0;right=0;pointerEvents=1;fontSize=18;fontStyle=1" vertex="1" parent="LS16o1geLcCYeuPVep7X-23">
          <mxGeometry width="60" height="40" as="geometry">
            <mxRectangle width="60" height="40" as="alternateBounds" />
          </mxGeometry>
        </mxCell>
        <mxCell id="LS16o1geLcCYeuPVep7X-25" value="8" style="shape=partialRectangle;html=1;whiteSpace=wrap;connectable=0;strokeColor=inherit;overflow=hidden;fillColor=none;top=0;left=0;bottom=0;right=0;pointerEvents=1;fontSize=18;fontStyle=1" vertex="1" parent="LS16o1geLcCYeuPVep7X-23">
          <mxGeometry x="60" width="60" height="40" as="geometry">
            <mxRectangle width="60" height="40" as="alternateBounds" />
          </mxGeometry>
        </mxCell>
        <mxCell id="LS16o1geLcCYeuPVep7X-26" value="S1" style="text;html=1;align=center;verticalAlign=middle;resizable=0;points=[];autosize=1;strokeColor=none;fillColor=none;fontStyle=1;fontSize=18;" vertex="1" parent="1">
          <mxGeometry x="244" y="338" width="40" height="34" as="geometry" />
        </mxCell>
        <mxCell id="LS16o1geLcCYeuPVep7X-27" value="" style="shape=flexArrow;endArrow=classic;html=1;rounded=0;fontStyle=1;fontSize=18;" edge="1" parent="1">
          <mxGeometry width="50" height="50" relative="1" as="geometry">
            <mxPoint x="344" y="289.5" as="sourcePoint" />
            <mxPoint x="424" y="289.5" as="targetPoint" />
          </mxGeometry>
        </mxCell>
        <mxCell id="LS16o1geLcCYeuPVep7X-28" value="" style="endArrow=none;dashed=1;html=1;rounded=0;strokeWidth=4;fontStyle=1;fontSize=18;" edge="1" parent="1">
          <mxGeometry width="50" height="50" relative="1" as="geometry">
            <mxPoint x="184" y="370" as="sourcePoint" />
            <mxPoint x="184" y="210" as="targetPoint" />
          </mxGeometry>
        </mxCell>
        <mxCell id="LS16o1geLcCYeuPVep7X-29" value="Merge" style="text;html=1;align=center;verticalAlign=middle;resizable=0;points=[];autosize=1;strokeColor=none;fillColor=none;fontStyle=1;fontSize=18;" vertex="1" parent="1">
          <mxGeometry x="339" y="245" width="70" height="40" as="geometry" />
        </mxCell>
        <mxCell id="LS16o1geLcCYeuPVep7X-30" value="" style="shape=table;startSize=0;container=1;collapsible=0;childLayout=tableLayout;fontSize=18;fillColor=#fff2cc;strokeColor=#d6b656;fontStyle=1" vertex="1" parent="1">
          <mxGeometry x="444" y="250" width="120" height="80" as="geometry" />
        </mxCell>
        <mxCell id="LS16o1geLcCYeuPVep7X-31" value="" style="shape=tableRow;horizontal=0;startSize=0;swimlaneHead=0;swimlaneBody=0;strokeColor=inherit;top=0;left=0;bottom=0;right=0;collapsible=0;dropTarget=0;fillColor=none;points=[[0,0.5],[1,0.5]];portConstraint=eastwest;fontSize=18;fontStyle=1" vertex="1" parent="LS16o1geLcCYeuPVep7X-30">
          <mxGeometry width="120" height="40" as="geometry" />
        </mxCell>
        <mxCell id="LS16o1geLcCYeuPVep7X-32" value="1" style="shape=partialRectangle;html=1;whiteSpace=wrap;connectable=0;strokeColor=inherit;overflow=hidden;fillColor=none;top=0;left=0;bottom=0;right=0;pointerEvents=1;fontSize=18;fontStyle=1" vertex="1" parent="LS16o1geLcCYeuPVep7X-31">
          <mxGeometry width="60" height="40" as="geometry">
            <mxRectangle width="60" height="40" as="alternateBounds" />
          </mxGeometry>
        </mxCell>
        <mxCell id="LS16o1geLcCYeuPVep7X-33" value="2" style="shape=partialRectangle;html=1;whiteSpace=wrap;connectable=0;strokeColor=inherit;overflow=hidden;fillColor=none;top=0;left=0;bottom=0;right=0;pointerEvents=1;fontSize=18;fontStyle=1" vertex="1" parent="LS16o1geLcCYeuPVep7X-31">
          <mxGeometry x="60" width="60" height="40" as="geometry">
            <mxRectangle width="60" height="40" as="alternateBounds" />
          </mxGeometry>
        </mxCell>
        <mxCell id="LS16o1geLcCYeuPVep7X-34" value="" style="shape=tableRow;horizontal=0;startSize=0;swimlaneHead=0;swimlaneBody=0;strokeColor=inherit;top=0;left=0;bottom=0;right=0;collapsible=0;dropTarget=0;fillColor=none;points=[[0,0.5],[1,0.5]];portConstraint=eastwest;fontSize=18;fontStyle=1" vertex="1" parent="LS16o1geLcCYeuPVep7X-30">
          <mxGeometry y="40" width="120" height="40" as="geometry" />
        </mxCell>
        <mxCell id="LS16o1geLcCYeuPVep7X-35" value="5" style="shape=partialRectangle;html=1;whiteSpace=wrap;connectable=0;strokeColor=inherit;overflow=hidden;fillColor=none;top=0;left=0;bottom=0;right=0;pointerEvents=1;fontSize=18;fontStyle=1" vertex="1" parent="LS16o1geLcCYeuPVep7X-34">
          <mxGeometry width="60" height="40" as="geometry">
            <mxRectangle width="60" height="40" as="alternateBounds" />
          </mxGeometry>
        </mxCell>
        <mxCell id="LS16o1geLcCYeuPVep7X-36" value="6" style="shape=partialRectangle;html=1;whiteSpace=wrap;connectable=0;strokeColor=inherit;overflow=hidden;fillColor=none;top=0;left=0;bottom=0;right=0;pointerEvents=1;fontSize=18;fontStyle=1" vertex="1" parent="LS16o1geLcCYeuPVep7X-34">
          <mxGeometry x="60" width="60" height="40" as="geometry">
            <mxRectangle width="60" height="40" as="alternateBounds" />
          </mxGeometry>
        </mxCell>
        <mxCell id="LS16o1geLcCYeuPVep7X-37" value="" style="shape=table;startSize=0;container=1;collapsible=0;childLayout=tableLayout;fontSize=18;fillColor=#f8cecc;strokeColor=#b85450;fontStyle=1" vertex="1" parent="1">
          <mxGeometry x="564" y="250" width="120" height="80" as="geometry" />
        </mxCell>
        <mxCell id="LS16o1geLcCYeuPVep7X-38" value="" style="shape=tableRow;horizontal=0;startSize=0;swimlaneHead=0;swimlaneBody=0;strokeColor=inherit;top=0;left=0;bottom=0;right=0;collapsible=0;dropTarget=0;fillColor=none;points=[[0,0.5],[1,0.5]];portConstraint=eastwest;fontSize=18;fontStyle=1" vertex="1" parent="LS16o1geLcCYeuPVep7X-37">
          <mxGeometry width="120" height="40" as="geometry" />
        </mxCell>
        <mxCell id="LS16o1geLcCYeuPVep7X-39" value="3" style="shape=partialRectangle;html=1;whiteSpace=wrap;connectable=0;strokeColor=inherit;overflow=hidden;fillColor=none;top=0;left=0;bottom=0;right=0;pointerEvents=1;fontSize=18;fontStyle=1" vertex="1" parent="LS16o1geLcCYeuPVep7X-38">
          <mxGeometry width="60" height="40" as="geometry">
            <mxRectangle width="60" height="40" as="alternateBounds" />
          </mxGeometry>
        </mxCell>
        <mxCell id="LS16o1geLcCYeuPVep7X-40" value="4" style="shape=partialRectangle;html=1;whiteSpace=wrap;connectable=0;strokeColor=inherit;overflow=hidden;fillColor=none;top=0;left=0;bottom=0;right=0;pointerEvents=1;fontSize=18;fontStyle=1" vertex="1" parent="LS16o1geLcCYeuPVep7X-38">
          <mxGeometry x="60" width="60" height="40" as="geometry">
            <mxRectangle width="60" height="40" as="alternateBounds" />
          </mxGeometry>
        </mxCell>
        <mxCell id="LS16o1geLcCYeuPVep7X-41" value="" style="shape=tableRow;horizontal=0;startSize=0;swimlaneHead=0;swimlaneBody=0;strokeColor=inherit;top=0;left=0;bottom=0;right=0;collapsible=0;dropTarget=0;fillColor=none;points=[[0,0.5],[1,0.5]];portConstraint=eastwest;fontSize=18;fontStyle=1" vertex="1" parent="LS16o1geLcCYeuPVep7X-37">
          <mxGeometry y="40" width="120" height="40" as="geometry" />
        </mxCell>
        <mxCell id="LS16o1geLcCYeuPVep7X-42" value="7" style="shape=partialRectangle;html=1;whiteSpace=wrap;connectable=0;strokeColor=inherit;overflow=hidden;fillColor=none;top=0;left=0;bottom=0;right=0;pointerEvents=1;fontSize=18;fontStyle=1" vertex="1" parent="LS16o1geLcCYeuPVep7X-41">
          <mxGeometry width="60" height="40" as="geometry">
            <mxRectangle width="60" height="40" as="alternateBounds" />
          </mxGeometry>
        </mxCell>
        <mxCell id="LS16o1geLcCYeuPVep7X-43" value="8" style="shape=partialRectangle;html=1;whiteSpace=wrap;connectable=0;strokeColor=inherit;overflow=hidden;fillColor=none;top=0;left=0;bottom=0;right=0;pointerEvents=1;fontSize=18;fontStyle=1" vertex="1" parent="LS16o1geLcCYeuPVep7X-41">
          <mxGeometry x="60" width="60" height="40" as="geometry">
            <mxRectangle width="60" height="40" as="alternateBounds" />
          </mxGeometry>
        </mxCell>
        <mxCell id="LS16o1geLcCYeuPVep7X-44" value="S" style="text;html=1;align=center;verticalAlign=middle;resizable=0;points=[];autosize=1;strokeColor=none;fillColor=none;fontStyle=1;fontSize=18;" vertex="1" parent="1">
          <mxGeometry x="544" y="335" width="40" height="40" as="geometry" />
        </mxCell>
        <mxCell id="LS16o1geLcCYeuPVep7X-45" value="" style="shape=table;startSize=0;container=1;collapsible=0;childLayout=tableLayout;fontSize=18;fillColor=#fff2cc;strokeColor=#d6b656;fontStyle=1" vertex="1" parent="1">
          <mxGeometry x="44" y="410" width="120" height="80" as="geometry" />
        </mxCell>
        <mxCell id="LS16o1geLcCYeuPVep7X-46" value="" style="shape=tableRow;horizontal=0;startSize=0;swimlaneHead=0;swimlaneBody=0;strokeColor=inherit;top=0;left=0;bottom=0;right=0;collapsible=0;dropTarget=0;fillColor=none;points=[[0,0.5],[1,0.5]];portConstraint=eastwest;fontSize=18;fontStyle=1" vertex="1" parent="LS16o1geLcCYeuPVep7X-45">
          <mxGeometry width="120" height="40" as="geometry" />
        </mxCell>
        <mxCell id="LS16o1geLcCYeuPVep7X-47" value="1" style="shape=partialRectangle;html=1;whiteSpace=wrap;connectable=0;strokeColor=inherit;overflow=hidden;fillColor=none;top=0;left=0;bottom=0;right=0;pointerEvents=1;fontSize=18;fontStyle=1" vertex="1" parent="LS16o1geLcCYeuPVep7X-46">
          <mxGeometry width="60" height="40" as="geometry">
            <mxRectangle width="60" height="40" as="alternateBounds" />
          </mxGeometry>
        </mxCell>
        <mxCell id="LS16o1geLcCYeuPVep7X-48" value="2" style="shape=partialRectangle;html=1;whiteSpace=wrap;connectable=0;strokeColor=inherit;overflow=hidden;fillColor=none;top=0;left=0;bottom=0;right=0;pointerEvents=1;fontSize=18;fontStyle=1" vertex="1" parent="LS16o1geLcCYeuPVep7X-46">
          <mxGeometry x="60" width="60" height="40" as="geometry">
            <mxRectangle width="60" height="40" as="alternateBounds" />
          </mxGeometry>
        </mxCell>
        <mxCell id="LS16o1geLcCYeuPVep7X-49" value="" style="shape=tableRow;horizontal=0;startSize=0;swimlaneHead=0;swimlaneBody=0;strokeColor=inherit;top=0;left=0;bottom=0;right=0;collapsible=0;dropTarget=0;fillColor=none;points=[[0,0.5],[1,0.5]];portConstraint=eastwest;fontSize=18;fontStyle=1" vertex="1" parent="LS16o1geLcCYeuPVep7X-45">
          <mxGeometry y="40" width="120" height="40" as="geometry" />
        </mxCell>
        <mxCell id="LS16o1geLcCYeuPVep7X-50" value="5" style="shape=partialRectangle;html=1;whiteSpace=wrap;connectable=0;strokeColor=inherit;overflow=hidden;fillColor=none;top=0;left=0;bottom=0;right=0;pointerEvents=1;fontSize=18;fontStyle=1" vertex="1" parent="LS16o1geLcCYeuPVep7X-49">
          <mxGeometry width="60" height="40" as="geometry">
            <mxRectangle width="60" height="40" as="alternateBounds" />
          </mxGeometry>
        </mxCell>
        <mxCell id="LS16o1geLcCYeuPVep7X-51" value="6" style="shape=partialRectangle;html=1;whiteSpace=wrap;connectable=0;strokeColor=inherit;overflow=hidden;fillColor=none;top=0;left=0;bottom=0;right=0;pointerEvents=1;fontSize=18;fontStyle=1" vertex="1" parent="LS16o1geLcCYeuPVep7X-49">
          <mxGeometry x="60" width="60" height="40" as="geometry">
            <mxRectangle width="60" height="40" as="alternateBounds" />
          </mxGeometry>
        </mxCell>
        <mxCell id="LS16o1geLcCYeuPVep7X-52" value="" style="shape=table;startSize=0;container=1;collapsible=0;childLayout=tableLayout;fontSize=18;fillColor=#f8cecc;strokeColor=#b85450;fontStyle=1" vertex="1" parent="1">
          <mxGeometry x="164" y="410" width="120" height="80" as="geometry" />
        </mxCell>
        <mxCell id="LS16o1geLcCYeuPVep7X-53" value="" style="shape=tableRow;horizontal=0;startSize=0;swimlaneHead=0;swimlaneBody=0;strokeColor=inherit;top=0;left=0;bottom=0;right=0;collapsible=0;dropTarget=0;fillColor=none;points=[[0,0.5],[1,0.5]];portConstraint=eastwest;fontSize=18;fontStyle=1" vertex="1" parent="LS16o1geLcCYeuPVep7X-52">
          <mxGeometry width="120" height="40" as="geometry" />
        </mxCell>
        <mxCell id="LS16o1geLcCYeuPVep7X-54" value="3" style="shape=partialRectangle;html=1;whiteSpace=wrap;connectable=0;strokeColor=inherit;overflow=hidden;fillColor=none;top=0;left=0;bottom=0;right=0;pointerEvents=1;fontSize=18;fontStyle=1" vertex="1" parent="LS16o1geLcCYeuPVep7X-53">
          <mxGeometry width="60" height="40" as="geometry">
            <mxRectangle width="60" height="40" as="alternateBounds" />
          </mxGeometry>
        </mxCell>
        <mxCell id="LS16o1geLcCYeuPVep7X-55" value="4" style="shape=partialRectangle;html=1;whiteSpace=wrap;connectable=0;strokeColor=inherit;overflow=hidden;fillColor=none;top=0;left=0;bottom=0;right=0;pointerEvents=1;fontSize=18;fontStyle=1" vertex="1" parent="LS16o1geLcCYeuPVep7X-53">
          <mxGeometry x="60" width="60" height="40" as="geometry">
            <mxRectangle width="60" height="40" as="alternateBounds" />
          </mxGeometry>
        </mxCell>
        <mxCell id="LS16o1geLcCYeuPVep7X-56" value="" style="shape=tableRow;horizontal=0;startSize=0;swimlaneHead=0;swimlaneBody=0;strokeColor=inherit;top=0;left=0;bottom=0;right=0;collapsible=0;dropTarget=0;fillColor=none;points=[[0,0.5],[1,0.5]];portConstraint=eastwest;fontSize=18;fontStyle=1" vertex="1" parent="LS16o1geLcCYeuPVep7X-52">
          <mxGeometry y="40" width="120" height="40" as="geometry" />
        </mxCell>
        <mxCell id="LS16o1geLcCYeuPVep7X-57" value="7" style="shape=partialRectangle;html=1;whiteSpace=wrap;connectable=0;strokeColor=inherit;overflow=hidden;fillColor=none;top=0;left=0;bottom=0;right=0;pointerEvents=1;fontSize=18;fontStyle=1" vertex="1" parent="LS16o1geLcCYeuPVep7X-56">
          <mxGeometry width="60" height="40" as="geometry">
            <mxRectangle width="60" height="40" as="alternateBounds" />
          </mxGeometry>
        </mxCell>
        <mxCell id="LS16o1geLcCYeuPVep7X-58" value="8" style="shape=partialRectangle;html=1;whiteSpace=wrap;connectable=0;strokeColor=inherit;overflow=hidden;fillColor=none;top=0;left=0;bottom=0;right=0;pointerEvents=1;fontSize=18;fontStyle=1" vertex="1" parent="LS16o1geLcCYeuPVep7X-56">
          <mxGeometry x="60" width="60" height="40" as="geometry">
            <mxRectangle width="60" height="40" as="alternateBounds" />
          </mxGeometry>
        </mxCell>
        <mxCell id="LS16o1geLcCYeuPVep7X-59" value="S" style="text;html=1;align=center;verticalAlign=middle;resizable=0;points=[];autosize=1;strokeColor=none;fillColor=none;fontStyle=1;fontSize=18;" vertex="1" parent="1">
          <mxGeometry x="144" y="495" width="40" height="40" as="geometry" />
        </mxCell>
        <mxCell id="LS16o1geLcCYeuPVep7X-60" value="" style="shape=flexArrow;endArrow=classic;html=1;rounded=0;fontStyle=1;fontSize=18;" edge="1" parent="1">
          <mxGeometry width="50" height="50" relative="1" as="geometry">
            <mxPoint x="304" y="460" as="sourcePoint" />
            <mxPoint x="384" y="460" as="targetPoint" />
          </mxGeometry>
        </mxCell>
        <mxCell id="LS16o1geLcCYeuPVep7X-61" value="transpose" style="text;html=1;align=center;verticalAlign=middle;resizable=0;points=[];autosize=1;strokeColor=none;fillColor=none;fontStyle=1;fontSize=18;" vertex="1" parent="1">
          <mxGeometry x="284" y="415" width="100" height="40" as="geometry" />
        </mxCell>
        <mxCell id="LS16o1geLcCYeuPVep7X-62" value="" style="shape=table;startSize=0;container=1;collapsible=0;childLayout=tableLayout;fontSize=18;fillColor=#fff2cc;strokeColor=#d6b656;direction=west;flipH=1;flipV=1;fontStyle=1" vertex="1" parent="1">
          <mxGeometry x="404" y="380" width="120" height="80" as="geometry" />
        </mxCell>
        <mxCell id="LS16o1geLcCYeuPVep7X-63" value="" style="shape=tableRow;horizontal=0;startSize=0;swimlaneHead=0;swimlaneBody=0;strokeColor=inherit;top=0;left=0;bottom=0;right=0;collapsible=0;dropTarget=0;fillColor=none;points=[[0,0.5],[1,0.5]];portConstraint=eastwest;fontSize=18;fontStyle=1" vertex="1" parent="LS16o1geLcCYeuPVep7X-62">
          <mxGeometry width="120" height="40" as="geometry" />
        </mxCell>
        <mxCell id="LS16o1geLcCYeuPVep7X-64" value="1" style="shape=partialRectangle;html=1;whiteSpace=wrap;connectable=0;strokeColor=inherit;overflow=hidden;fillColor=none;top=0;left=0;bottom=0;right=0;pointerEvents=1;fontSize=18;fontStyle=1" vertex="1" parent="LS16o1geLcCYeuPVep7X-63">
          <mxGeometry width="60" height="40" as="geometry">
            <mxRectangle width="60" height="40" as="alternateBounds" />
          </mxGeometry>
        </mxCell>
        <mxCell id="LS16o1geLcCYeuPVep7X-65" value="5" style="shape=partialRectangle;html=1;whiteSpace=wrap;connectable=0;strokeColor=#d6b656;overflow=hidden;fillColor=#fff2cc;top=0;left=0;bottom=0;right=0;pointerEvents=1;fontSize=18;fontStyle=1" vertex="1" parent="LS16o1geLcCYeuPVep7X-63">
          <mxGeometry x="60" width="60" height="40" as="geometry">
            <mxRectangle width="60" height="40" as="alternateBounds" />
          </mxGeometry>
        </mxCell>
        <mxCell id="LS16o1geLcCYeuPVep7X-66" value="" style="shape=tableRow;horizontal=0;startSize=0;swimlaneHead=0;swimlaneBody=0;strokeColor=inherit;top=0;left=0;bottom=0;right=0;collapsible=0;dropTarget=0;fillColor=none;points=[[0,0.5],[1,0.5]];portConstraint=eastwest;fontSize=18;fontStyle=1" vertex="1" parent="LS16o1geLcCYeuPVep7X-62">
          <mxGeometry y="40" width="120" height="40" as="geometry" />
        </mxCell>
        <mxCell id="LS16o1geLcCYeuPVep7X-67" value="2" style="shape=partialRectangle;html=1;whiteSpace=wrap;connectable=0;strokeColor=inherit;overflow=hidden;fillColor=none;top=0;left=0;bottom=0;right=0;pointerEvents=1;fontSize=18;fontStyle=1" vertex="1" parent="LS16o1geLcCYeuPVep7X-66">
          <mxGeometry width="60" height="40" as="geometry">
            <mxRectangle width="60" height="40" as="alternateBounds" />
          </mxGeometry>
        </mxCell>
        <mxCell id="LS16o1geLcCYeuPVep7X-68" value="6" style="shape=partialRectangle;html=1;whiteSpace=wrap;connectable=0;strokeColor=#d6b656;overflow=hidden;fillColor=#fff2cc;top=0;left=0;bottom=0;right=0;pointerEvents=1;fontSize=18;fontStyle=1" vertex="1" parent="LS16o1geLcCYeuPVep7X-66">
          <mxGeometry x="60" width="60" height="40" as="geometry">
            <mxRectangle width="60" height="40" as="alternateBounds" />
          </mxGeometry>
        </mxCell>
        <mxCell id="LS16o1geLcCYeuPVep7X-69" value="" style="shape=table;startSize=0;container=1;collapsible=0;childLayout=tableLayout;fontSize=18;fillColor=#f8cecc;strokeColor=#b85450;direction=west;fontStyle=1" vertex="1" parent="1">
          <mxGeometry x="404" y="460" width="120" height="80" as="geometry" />
        </mxCell>
        <mxCell id="LS16o1geLcCYeuPVep7X-70" value="" style="shape=tableRow;horizontal=0;startSize=0;swimlaneHead=0;swimlaneBody=0;strokeColor=inherit;top=0;left=0;bottom=0;right=0;collapsible=0;dropTarget=0;fillColor=none;points=[[0,0.5],[1,0.5]];portConstraint=eastwest;fontSize=18;fontStyle=1" vertex="1" parent="LS16o1geLcCYeuPVep7X-69">
          <mxGeometry width="120" height="40" as="geometry" />
        </mxCell>
        <mxCell id="LS16o1geLcCYeuPVep7X-71" value="3" style="shape=partialRectangle;html=1;whiteSpace=wrap;connectable=0;strokeColor=#b85450;overflow=hidden;fillColor=#f8cecc;top=0;left=0;bottom=0;right=0;pointerEvents=1;fontSize=18;fontStyle=1" vertex="1" parent="LS16o1geLcCYeuPVep7X-70">
          <mxGeometry width="60" height="40" as="geometry">
            <mxRectangle width="60" height="40" as="alternateBounds" />
          </mxGeometry>
        </mxCell>
        <mxCell id="LS16o1geLcCYeuPVep7X-72" value="7" style="shape=partialRectangle;html=1;whiteSpace=wrap;connectable=0;strokeColor=inherit;overflow=hidden;fillColor=none;top=0;left=0;bottom=0;right=0;pointerEvents=1;fontSize=18;fontStyle=1" vertex="1" parent="LS16o1geLcCYeuPVep7X-70">
          <mxGeometry x="60" width="60" height="40" as="geometry">
            <mxRectangle width="60" height="40" as="alternateBounds" />
          </mxGeometry>
        </mxCell>
        <mxCell id="LS16o1geLcCYeuPVep7X-73" value="" style="shape=tableRow;horizontal=0;startSize=0;swimlaneHead=0;swimlaneBody=0;strokeColor=inherit;top=0;left=0;bottom=0;right=0;collapsible=0;dropTarget=0;fillColor=none;points=[[0,0.5],[1,0.5]];portConstraint=eastwest;fontSize=18;fontStyle=1" vertex="1" parent="LS16o1geLcCYeuPVep7X-69">
          <mxGeometry y="40" width="120" height="40" as="geometry" />
        </mxCell>
        <mxCell id="LS16o1geLcCYeuPVep7X-74" value="4" style="shape=partialRectangle;html=1;whiteSpace=wrap;connectable=0;strokeColor=#b85450;overflow=hidden;fillColor=#f8cecc;top=0;left=0;bottom=0;right=0;pointerEvents=1;fontSize=18;fontStyle=1" vertex="1" parent="LS16o1geLcCYeuPVep7X-73">
          <mxGeometry width="60" height="40" as="geometry">
            <mxRectangle width="60" height="40" as="alternateBounds" />
          </mxGeometry>
        </mxCell>
        <mxCell id="LS16o1geLcCYeuPVep7X-75" value="8" style="shape=partialRectangle;html=1;whiteSpace=wrap;connectable=0;strokeColor=inherit;overflow=hidden;fillColor=none;top=0;left=0;bottom=0;right=0;pointerEvents=1;fontSize=18;fontStyle=1" vertex="1" parent="LS16o1geLcCYeuPVep7X-73">
          <mxGeometry x="60" width="60" height="40" as="geometry">
            <mxRectangle width="60" height="40" as="alternateBounds" />
          </mxGeometry>
        </mxCell>
        <mxCell id="LS16o1geLcCYeuPVep7X-76" value="" style="shape=flexArrow;endArrow=classic;html=1;rounded=0;fontStyle=1;fontSize=18;" edge="1" parent="1">
          <mxGeometry width="50" height="50" relative="1" as="geometry">
            <mxPoint x="544" y="460" as="sourcePoint" />
            <mxPoint x="624" y="460" as="targetPoint" />
          </mxGeometry>
        </mxCell>
        <mxCell id="LS16o1geLcCYeuPVep7X-77" value="split" style="text;html=1;align=center;verticalAlign=middle;resizable=0;points=[];autosize=1;strokeColor=none;fillColor=none;fontStyle=1;fontSize=18;" vertex="1" parent="1">
          <mxGeometry x="544" y="415" width="60" height="40" as="geometry" />
        </mxCell>
        <mxCell id="LS16o1geLcCYeuPVep7X-78" value="" style="shape=table;startSize=0;container=1;collapsible=0;childLayout=tableLayout;fontSize=18;fillColor=#f8cecc;strokeColor=#b85450;direction=west;flipH=1;flipV=1;fontStyle=1" vertex="1" parent="1">
          <mxGeometry x="644" y="380" width="60" height="160" as="geometry" />
        </mxCell>
        <mxCell id="LS16o1geLcCYeuPVep7X-79" value="" style="shape=tableRow;horizontal=0;startSize=0;swimlaneHead=0;swimlaneBody=0;strokeColor=inherit;top=0;left=0;bottom=0;right=0;collapsible=0;dropTarget=0;fillColor=none;points=[[0,0.5],[1,0.5]];portConstraint=eastwest;fontSize=18;fontStyle=1" vertex="1" parent="LS16o1geLcCYeuPVep7X-78">
          <mxGeometry width="60" height="40" as="geometry" />
        </mxCell>
        <mxCell id="LS16o1geLcCYeuPVep7X-80" value="1" style="shape=partialRectangle;html=1;whiteSpace=wrap;connectable=0;strokeColor=#d6b656;overflow=hidden;fillColor=#fff2cc;top=0;left=0;bottom=0;right=0;pointerEvents=1;fontSize=18;fontStyle=1" vertex="1" parent="LS16o1geLcCYeuPVep7X-79">
          <mxGeometry width="60" height="40" as="geometry">
            <mxRectangle width="60" height="40" as="alternateBounds" />
          </mxGeometry>
        </mxCell>
        <mxCell id="LS16o1geLcCYeuPVep7X-82" value="" style="shape=tableRow;horizontal=0;startSize=0;swimlaneHead=0;swimlaneBody=0;strokeColor=inherit;top=0;left=0;bottom=0;right=0;collapsible=0;dropTarget=0;fillColor=none;points=[[0,0.5],[1,0.5]];portConstraint=eastwest;fontSize=18;fontStyle=1" vertex="1" parent="LS16o1geLcCYeuPVep7X-78">
          <mxGeometry y="40" width="60" height="40" as="geometry" />
        </mxCell>
        <mxCell id="LS16o1geLcCYeuPVep7X-83" value="2" style="shape=partialRectangle;html=1;whiteSpace=wrap;connectable=0;strokeColor=#d6b656;overflow=hidden;fillColor=#fff2cc;top=0;left=0;bottom=0;right=0;pointerEvents=1;fontSize=18;fontStyle=1" vertex="1" parent="LS16o1geLcCYeuPVep7X-82">
          <mxGeometry width="60" height="40" as="geometry">
            <mxRectangle width="60" height="40" as="alternateBounds" />
          </mxGeometry>
        </mxCell>
        <mxCell id="LS16o1geLcCYeuPVep7X-92" style="shape=tableRow;horizontal=0;startSize=0;swimlaneHead=0;swimlaneBody=0;strokeColor=inherit;top=0;left=0;bottom=0;right=0;collapsible=0;dropTarget=0;fillColor=none;points=[[0,0.5],[1,0.5]];portConstraint=eastwest;fontSize=18;fontStyle=1" vertex="1" parent="LS16o1geLcCYeuPVep7X-78">
          <mxGeometry y="80" width="60" height="40" as="geometry" />
        </mxCell>
        <mxCell id="LS16o1geLcCYeuPVep7X-93" value="3" style="shape=partialRectangle;html=1;whiteSpace=wrap;connectable=0;strokeColor=inherit;overflow=hidden;fillColor=none;top=0;left=0;bottom=0;right=0;pointerEvents=1;fontSize=18;fontStyle=1" vertex="1" parent="LS16o1geLcCYeuPVep7X-92">
          <mxGeometry width="60" height="40" as="geometry">
            <mxRectangle width="60" height="40" as="alternateBounds" />
          </mxGeometry>
        </mxCell>
        <mxCell id="LS16o1geLcCYeuPVep7X-94" style="shape=tableRow;horizontal=0;startSize=0;swimlaneHead=0;swimlaneBody=0;strokeColor=inherit;top=0;left=0;bottom=0;right=0;collapsible=0;dropTarget=0;fillColor=none;points=[[0,0.5],[1,0.5]];portConstraint=eastwest;fontSize=18;fontStyle=1" vertex="1" parent="LS16o1geLcCYeuPVep7X-78">
          <mxGeometry y="120" width="60" height="40" as="geometry" />
        </mxCell>
        <mxCell id="LS16o1geLcCYeuPVep7X-95" value="4" style="shape=partialRectangle;html=1;whiteSpace=wrap;connectable=0;strokeColor=inherit;overflow=hidden;fillColor=none;top=0;left=0;bottom=0;right=0;pointerEvents=1;fontSize=18;fontStyle=1" vertex="1" parent="LS16o1geLcCYeuPVep7X-94">
          <mxGeometry width="60" height="40" as="geometry">
            <mxRectangle width="60" height="40" as="alternateBounds" />
          </mxGeometry>
        </mxCell>
        <mxCell id="LS16o1geLcCYeuPVep7X-85" value="" style="shape=table;startSize=0;container=1;collapsible=0;childLayout=tableLayout;fontSize=18;fillColor=#f8cecc;strokeColor=#b85450;direction=west;fontStyle=1" vertex="1" parent="1">
          <mxGeometry x="744" y="380" width="60" height="160" as="geometry" />
        </mxCell>
        <mxCell id="LS16o1geLcCYeuPVep7X-86" value="" style="shape=tableRow;horizontal=0;startSize=0;swimlaneHead=0;swimlaneBody=0;strokeColor=inherit;top=0;left=0;bottom=0;right=0;collapsible=0;dropTarget=0;fillColor=none;points=[[0,0.5],[1,0.5]];portConstraint=eastwest;fontSize=18;fontStyle=1" vertex="1" parent="LS16o1geLcCYeuPVep7X-85">
          <mxGeometry width="60" height="40" as="geometry" />
        </mxCell>
        <mxCell id="LS16o1geLcCYeuPVep7X-87" value="5" style="shape=partialRectangle;html=1;whiteSpace=wrap;connectable=0;strokeColor=#d6b656;overflow=hidden;fillColor=#fff2cc;top=0;left=0;bottom=0;right=0;pointerEvents=1;fontSize=18;fontStyle=1" vertex="1" parent="LS16o1geLcCYeuPVep7X-86">
          <mxGeometry width="60" height="40" as="geometry">
            <mxRectangle width="60" height="40" as="alternateBounds" />
          </mxGeometry>
        </mxCell>
        <mxCell id="LS16o1geLcCYeuPVep7X-89" value="" style="shape=tableRow;horizontal=0;startSize=0;swimlaneHead=0;swimlaneBody=0;strokeColor=inherit;top=0;left=0;bottom=0;right=0;collapsible=0;dropTarget=0;fillColor=none;points=[[0,0.5],[1,0.5]];portConstraint=eastwest;fontSize=18;fontStyle=1" vertex="1" parent="LS16o1geLcCYeuPVep7X-85">
          <mxGeometry y="40" width="60" height="40" as="geometry" />
        </mxCell>
        <mxCell id="LS16o1geLcCYeuPVep7X-90" value="6" style="shape=partialRectangle;html=1;whiteSpace=wrap;connectable=0;strokeColor=#d6b656;overflow=hidden;fillColor=#fff2cc;top=0;left=0;bottom=0;right=0;pointerEvents=1;fontSize=18;fontStyle=1" vertex="1" parent="LS16o1geLcCYeuPVep7X-89">
          <mxGeometry width="60" height="40" as="geometry">
            <mxRectangle width="60" height="40" as="alternateBounds" />
          </mxGeometry>
        </mxCell>
        <mxCell id="LS16o1geLcCYeuPVep7X-96" style="shape=tableRow;horizontal=0;startSize=0;swimlaneHead=0;swimlaneBody=0;strokeColor=inherit;top=0;left=0;bottom=0;right=0;collapsible=0;dropTarget=0;fillColor=none;points=[[0,0.5],[1,0.5]];portConstraint=eastwest;fontSize=18;fontStyle=1" vertex="1" parent="LS16o1geLcCYeuPVep7X-85">
          <mxGeometry y="80" width="60" height="40" as="geometry" />
        </mxCell>
        <mxCell id="LS16o1geLcCYeuPVep7X-97" value="7" style="shape=partialRectangle;html=1;whiteSpace=wrap;connectable=0;strokeColor=#b85450;overflow=hidden;fillColor=#f8cecc;top=0;left=0;bottom=0;right=0;pointerEvents=1;fontSize=18;fontStyle=1" vertex="1" parent="LS16o1geLcCYeuPVep7X-96">
          <mxGeometry width="60" height="40" as="geometry">
            <mxRectangle width="60" height="40" as="alternateBounds" />
          </mxGeometry>
        </mxCell>
        <mxCell id="LS16o1geLcCYeuPVep7X-98" style="shape=tableRow;horizontal=0;startSize=0;swimlaneHead=0;swimlaneBody=0;strokeColor=inherit;top=0;left=0;bottom=0;right=0;collapsible=0;dropTarget=0;fillColor=none;points=[[0,0.5],[1,0.5]];portConstraint=eastwest;fontSize=18;fontStyle=1" vertex="1" parent="LS16o1geLcCYeuPVep7X-85">
          <mxGeometry y="120" width="60" height="40" as="geometry" />
        </mxCell>
        <mxCell id="LS16o1geLcCYeuPVep7X-99" value="8" style="shape=partialRectangle;html=1;whiteSpace=wrap;connectable=0;strokeColor=#b85450;overflow=hidden;fillColor=#f8cecc;top=0;left=0;bottom=0;right=0;pointerEvents=1;fontSize=18;fontStyle=1" vertex="1" parent="LS16o1geLcCYeuPVep7X-98">
          <mxGeometry width="60" height="40" as="geometry">
            <mxRectangle width="60" height="40" as="alternateBounds" />
          </mxGeometry>
        </mxCell>
        <mxCell id="LS16o1geLcCYeuPVep7X-100" value="" style="endArrow=none;dashed=1;html=1;rounded=0;strokeWidth=4;fontStyle=1;fontSize=18;" edge="1" parent="1">
          <mxGeometry width="50" height="50" relative="1" as="geometry">
            <mxPoint x="724" y="570" as="sourcePoint" />
            <mxPoint x="724" y="355" as="targetPoint" />
          </mxGeometry>
        </mxCell>
        <mxCell id="LS16o1geLcCYeuPVep7X-101" value="D0" style="text;html=1;align=center;verticalAlign=middle;resizable=0;points=[];autosize=1;strokeColor=none;fillColor=none;fontStyle=1;fontSize=18;" vertex="1" parent="1">
          <mxGeometry x="654" y="548" width="41" height="34" as="geometry" />
        </mxCell>
        <mxCell id="LS16o1geLcCYeuPVep7X-102" value="D1" style="text;html=1;align=center;verticalAlign=middle;resizable=0;points=[];autosize=1;strokeColor=none;fillColor=none;fontStyle=1;fontSize=18;" vertex="1" parent="1">
          <mxGeometry x="754" y="548" width="41" height="34" as="geometry" />
        </mxCell>
        <mxCell id="LS16o1geLcCYeuPVep7X-139" style="edgeStyle=orthogonalEdgeStyle;rounded=0;orthogonalLoop=1;jettySize=auto;html=1;exitX=1;exitY=0.75;exitDx=0;exitDy=0;entryX=1;entryY=0.75;entryDx=0;entryDy=0;" edge="1" parent="1" source="LS16o1geLcCYeuPVep7X-103" target="LS16o1geLcCYeuPVep7X-129">
          <mxGeometry relative="1" as="geometry" />
        </mxCell>
        <mxCell id="LS16o1geLcCYeuPVep7X-103" value="" style="shape=table;startSize=0;container=1;collapsible=0;childLayout=tableLayout;fontSize=18;fillColor=#fff2cc;strokeColor=#d6b656;fontStyle=1" vertex="1" parent="1">
          <mxGeometry x="200" y="589" width="120" height="80" as="geometry" />
        </mxCell>
        <mxCell id="LS16o1geLcCYeuPVep7X-104" value="" style="shape=tableRow;horizontal=0;startSize=0;swimlaneHead=0;swimlaneBody=0;strokeColor=inherit;top=0;left=0;bottom=0;right=0;collapsible=0;dropTarget=0;fillColor=none;points=[[0,0.5],[1,0.5]];portConstraint=eastwest;fontSize=18;fontStyle=1" vertex="1" parent="LS16o1geLcCYeuPVep7X-103">
          <mxGeometry width="120" height="40" as="geometry" />
        </mxCell>
        <mxCell id="LS16o1geLcCYeuPVep7X-105" value="1" style="shape=partialRectangle;html=1;whiteSpace=wrap;connectable=0;strokeColor=inherit;overflow=hidden;fillColor=none;top=0;left=0;bottom=0;right=0;pointerEvents=1;fontSize=18;fontStyle=1" vertex="1" parent="LS16o1geLcCYeuPVep7X-104">
          <mxGeometry width="60" height="40" as="geometry">
            <mxRectangle width="60" height="40" as="alternateBounds" />
          </mxGeometry>
        </mxCell>
        <mxCell id="LS16o1geLcCYeuPVep7X-106" value="2" style="shape=partialRectangle;html=1;whiteSpace=wrap;connectable=0;strokeColor=inherit;overflow=hidden;fillColor=none;top=0;left=0;bottom=0;right=0;pointerEvents=1;fontSize=18;fontStyle=1" vertex="1" parent="LS16o1geLcCYeuPVep7X-104">
          <mxGeometry x="60" width="60" height="40" as="geometry">
            <mxRectangle width="60" height="40" as="alternateBounds" />
          </mxGeometry>
        </mxCell>
        <mxCell id="LS16o1geLcCYeuPVep7X-107" value="" style="shape=tableRow;horizontal=0;startSize=0;swimlaneHead=0;swimlaneBody=0;strokeColor=inherit;top=0;left=0;bottom=0;right=0;collapsible=0;dropTarget=0;fillColor=none;points=[[0,0.5],[1,0.5]];portConstraint=eastwest;fontSize=18;fontStyle=1" vertex="1" parent="LS16o1geLcCYeuPVep7X-103">
          <mxGeometry y="40" width="120" height="40" as="geometry" />
        </mxCell>
        <mxCell id="LS16o1geLcCYeuPVep7X-108" value="5" style="shape=partialRectangle;html=1;whiteSpace=wrap;connectable=0;strokeColor=#9673a6;overflow=hidden;fillColor=#e1d5e7;top=0;left=0;bottom=0;right=0;pointerEvents=1;fontSize=18;fontStyle=1" vertex="1" parent="LS16o1geLcCYeuPVep7X-107">
          <mxGeometry width="60" height="40" as="geometry">
            <mxRectangle width="60" height="40" as="alternateBounds" />
          </mxGeometry>
        </mxCell>
        <mxCell id="LS16o1geLcCYeuPVep7X-109" value="6" style="shape=partialRectangle;html=1;whiteSpace=wrap;connectable=0;strokeColor=#9673a6;overflow=hidden;fillColor=#e1d5e7;top=0;left=0;bottom=0;right=0;pointerEvents=1;fontSize=18;fontStyle=1" vertex="1" parent="LS16o1geLcCYeuPVep7X-107">
          <mxGeometry x="60" width="60" height="40" as="geometry">
            <mxRectangle width="60" height="40" as="alternateBounds" />
          </mxGeometry>
        </mxCell>
        <mxCell id="LS16o1geLcCYeuPVep7X-110" value="S0" style="text;html=1;align=center;verticalAlign=middle;resizable=0;points=[];autosize=1;strokeColor=none;fillColor=none;fontStyle=1;fontSize=18;" vertex="1" parent="1">
          <mxGeometry x="240" y="677" width="40" height="34" as="geometry" />
        </mxCell>
        <mxCell id="LS16o1geLcCYeuPVep7X-111" value="" style="shape=table;startSize=0;container=1;collapsible=0;childLayout=tableLayout;fontSize=18;fillColor=#f8cecc;strokeColor=#b85450;fontStyle=1" vertex="1" parent="1">
          <mxGeometry x="200" y="737" width="120" height="80" as="geometry" />
        </mxCell>
        <mxCell id="LS16o1geLcCYeuPVep7X-112" value="" style="shape=tableRow;horizontal=0;startSize=0;swimlaneHead=0;swimlaneBody=0;strokeColor=inherit;top=0;left=0;bottom=0;right=0;collapsible=0;dropTarget=0;fillColor=none;points=[[0,0.5],[1,0.5]];portConstraint=eastwest;fontSize=18;fontStyle=1" vertex="1" parent="LS16o1geLcCYeuPVep7X-111">
          <mxGeometry width="120" height="40" as="geometry" />
        </mxCell>
        <mxCell id="LS16o1geLcCYeuPVep7X-113" value="3" style="shape=partialRectangle;html=1;whiteSpace=wrap;connectable=0;strokeColor=inherit;overflow=hidden;fillColor=none;top=0;left=0;bottom=0;right=0;pointerEvents=1;fontSize=18;fontStyle=1" vertex="1" parent="LS16o1geLcCYeuPVep7X-112">
          <mxGeometry width="60" height="40" as="geometry">
            <mxRectangle width="60" height="40" as="alternateBounds" />
          </mxGeometry>
        </mxCell>
        <mxCell id="LS16o1geLcCYeuPVep7X-114" value="4" style="shape=partialRectangle;html=1;whiteSpace=wrap;connectable=0;strokeColor=inherit;overflow=hidden;fillColor=none;top=0;left=0;bottom=0;right=0;pointerEvents=1;fontSize=18;fontStyle=1" vertex="1" parent="LS16o1geLcCYeuPVep7X-112">
          <mxGeometry x="60" width="60" height="40" as="geometry">
            <mxRectangle width="60" height="40" as="alternateBounds" />
          </mxGeometry>
        </mxCell>
        <mxCell id="LS16o1geLcCYeuPVep7X-115" value="" style="shape=tableRow;horizontal=0;startSize=0;swimlaneHead=0;swimlaneBody=0;strokeColor=inherit;top=0;left=0;bottom=0;right=0;collapsible=0;dropTarget=0;fillColor=none;points=[[0,0.5],[1,0.5]];portConstraint=eastwest;fontSize=18;fontStyle=1" vertex="1" parent="LS16o1geLcCYeuPVep7X-111">
          <mxGeometry y="40" width="120" height="40" as="geometry" />
        </mxCell>
        <mxCell id="LS16o1geLcCYeuPVep7X-116" value="7" style="shape=partialRectangle;html=1;whiteSpace=wrap;connectable=0;strokeColor=#9673a6;overflow=hidden;fillColor=#e1d5e7;top=0;left=0;bottom=0;right=0;pointerEvents=1;fontSize=18;fontStyle=1" vertex="1" parent="LS16o1geLcCYeuPVep7X-115">
          <mxGeometry width="60" height="40" as="geometry">
            <mxRectangle width="60" height="40" as="alternateBounds" />
          </mxGeometry>
        </mxCell>
        <mxCell id="LS16o1geLcCYeuPVep7X-117" value="8" style="shape=partialRectangle;html=1;whiteSpace=wrap;connectable=0;strokeColor=#9673a6;overflow=hidden;fillColor=#e1d5e7;top=0;left=0;bottom=0;right=0;pointerEvents=1;fontSize=18;fontStyle=1" vertex="1" parent="LS16o1geLcCYeuPVep7X-115">
          <mxGeometry x="60" width="60" height="40" as="geometry">
            <mxRectangle width="60" height="40" as="alternateBounds" />
          </mxGeometry>
        </mxCell>
        <mxCell id="LS16o1geLcCYeuPVep7X-118" value="S1" style="text;html=1;align=center;verticalAlign=middle;resizable=0;points=[];autosize=1;strokeColor=none;fillColor=none;fontStyle=1;fontSize=18;" vertex="1" parent="1">
          <mxGeometry x="240" y="825" width="40" height="34" as="geometry" />
        </mxCell>
        <mxCell id="LS16o1geLcCYeuPVep7X-129" value="" style="shape=table;startSize=0;container=1;collapsible=0;childLayout=tableLayout;fontSize=18;fillColor=#e1d5e7;strokeColor=#9673a6;direction=west;fontStyle=1" vertex="1" parent="1">
          <mxGeometry x="478" y="620" width="60" height="160" as="geometry" />
        </mxCell>
        <mxCell id="LS16o1geLcCYeuPVep7X-130" value="" style="shape=tableRow;horizontal=0;startSize=0;swimlaneHead=0;swimlaneBody=0;strokeColor=#9673a6;top=0;left=0;bottom=0;right=0;collapsible=0;dropTarget=0;fillColor=#e1d5e7;points=[[0,0.5],[1,0.5]];portConstraint=eastwest;fontSize=18;fontStyle=1" vertex="1" parent="LS16o1geLcCYeuPVep7X-129">
          <mxGeometry width="60" height="40" as="geometry" />
        </mxCell>
        <mxCell id="LS16o1geLcCYeuPVep7X-131" value="5" style="shape=partialRectangle;html=1;whiteSpace=wrap;connectable=0;strokeColor=#9673a6;overflow=hidden;fillColor=#e1d5e7;top=0;left=0;bottom=0;right=0;pointerEvents=1;fontSize=18;fontStyle=1" vertex="1" parent="LS16o1geLcCYeuPVep7X-130">
          <mxGeometry width="60" height="40" as="geometry">
            <mxRectangle width="60" height="40" as="alternateBounds" />
          </mxGeometry>
        </mxCell>
        <mxCell id="LS16o1geLcCYeuPVep7X-132" value="" style="shape=tableRow;horizontal=0;startSize=0;swimlaneHead=0;swimlaneBody=0;strokeColor=#9673a6;top=0;left=0;bottom=0;right=0;collapsible=0;dropTarget=0;fillColor=#e1d5e7;points=[[0,0.5],[1,0.5]];portConstraint=eastwest;fontSize=18;fontStyle=1" vertex="1" parent="LS16o1geLcCYeuPVep7X-129">
          <mxGeometry y="40" width="60" height="40" as="geometry" />
        </mxCell>
        <mxCell id="LS16o1geLcCYeuPVep7X-133" value="6" style="shape=partialRectangle;html=1;whiteSpace=wrap;connectable=0;strokeColor=#9673a6;overflow=hidden;fillColor=#e1d5e7;top=0;left=0;bottom=0;right=0;pointerEvents=1;fontSize=18;fontStyle=1" vertex="1" parent="LS16o1geLcCYeuPVep7X-132">
          <mxGeometry width="60" height="40" as="geometry">
            <mxRectangle width="60" height="40" as="alternateBounds" />
          </mxGeometry>
        </mxCell>
        <mxCell id="LS16o1geLcCYeuPVep7X-134" style="shape=tableRow;horizontal=0;startSize=0;swimlaneHead=0;swimlaneBody=0;strokeColor=#9673a6;top=0;left=0;bottom=0;right=0;collapsible=0;dropTarget=0;fillColor=#e1d5e7;points=[[0,0.5],[1,0.5]];portConstraint=eastwest;fontSize=18;fontStyle=1" vertex="1" parent="LS16o1geLcCYeuPVep7X-129">
          <mxGeometry y="80" width="60" height="40" as="geometry" />
        </mxCell>
        <mxCell id="LS16o1geLcCYeuPVep7X-135" value="7" style="shape=partialRectangle;html=1;whiteSpace=wrap;connectable=0;strokeColor=#9673a6;overflow=hidden;fillColor=#e1d5e7;top=0;left=0;bottom=0;right=0;pointerEvents=1;fontSize=18;fontStyle=1" vertex="1" parent="LS16o1geLcCYeuPVep7X-134">
          <mxGeometry width="60" height="40" as="geometry">
            <mxRectangle width="60" height="40" as="alternateBounds" />
          </mxGeometry>
        </mxCell>
        <mxCell id="LS16o1geLcCYeuPVep7X-136" style="shape=tableRow;horizontal=0;startSize=0;swimlaneHead=0;swimlaneBody=0;strokeColor=#9673a6;top=0;left=0;bottom=0;right=0;collapsible=0;dropTarget=0;fillColor=#e1d5e7;points=[[0,0.5],[1,0.5]];portConstraint=eastwest;fontSize=18;fontStyle=1" vertex="1" parent="LS16o1geLcCYeuPVep7X-129">
          <mxGeometry y="120" width="60" height="40" as="geometry" />
        </mxCell>
        <mxCell id="LS16o1geLcCYeuPVep7X-137" value="8" style="shape=partialRectangle;html=1;whiteSpace=wrap;connectable=0;strokeColor=#9673a6;overflow=hidden;fillColor=#e1d5e7;top=0;left=0;bottom=0;right=0;pointerEvents=1;fontSize=18;fontStyle=1" vertex="1" parent="LS16o1geLcCYeuPVep7X-136">
          <mxGeometry width="60" height="40" as="geometry">
            <mxRectangle width="60" height="40" as="alternateBounds" />
          </mxGeometry>
        </mxCell>
        <mxCell id="LS16o1geLcCYeuPVep7X-138" value="D1" style="text;html=1;align=center;verticalAlign=middle;resizable=0;points=[];autosize=1;strokeColor=none;fillColor=none;fontStyle=1;fontSize=18;" vertex="1" parent="1">
          <mxGeometry x="488" y="788" width="41" height="34" as="geometry" />
        </mxCell>
        <mxCell id="LS16o1geLcCYeuPVep7X-140" style="edgeStyle=orthogonalEdgeStyle;rounded=0;orthogonalLoop=1;jettySize=auto;html=1;exitX=1;exitY=0.5;exitDx=0;exitDy=0;entryX=1;entryY=0.25;entryDx=0;entryDy=0;" edge="1" parent="1" source="LS16o1geLcCYeuPVep7X-115" target="LS16o1geLcCYeuPVep7X-129">
          <mxGeometry relative="1" as="geometry" />
        </mxCell>
      </root>
    </mxGraphModel>
  </diagram>
</mxfile>
